<svg width="22" height="22" viewBox="0 0 22 22" fill="none" xmlns="http://www.w3.org/2000/svg">
<path d="M19.2015 7.613C19.1914 6.91908 19.0631 6.23067 18.8174 5.58167C18.3875 4.47342 17.5121 3.59708 16.4038 3.16808C15.7631 2.927 15.0856 2.79775 14.4 2.78308C13.5181 2.74367 13.2386 2.73267 11.0001 2.73267C8.76157 2.73267 8.47465 2.73267 7.59923 2.78308C6.91448 2.79775 6.23706 2.927 5.59631 3.16808C4.48806 3.59708 3.61173 4.47342 3.18273 5.58167C2.94165 6.22242 2.81148 6.89983 2.79865 7.58458C2.75923 8.46733 2.74731 8.74692 2.74731 10.9854C2.74731 13.2239 2.74731 13.5099 2.79865 14.3863C2.8124 15.0719 2.94165 15.7484 3.18273 16.391C3.61265 17.4983 4.48806 18.3747 5.59723 18.8037C6.23523 19.053 6.91265 19.1942 7.60015 19.2162C8.4829 19.2556 8.76248 19.2675 11.001 19.2675C13.2395 19.2675 13.5264 19.2675 14.4018 19.2162C15.0866 19.2024 15.764 19.0732 16.4056 18.8321C17.5139 18.4022 18.3893 17.5258 18.8192 16.4185C19.0603 15.7768 19.1896 15.1003 19.2033 14.4138C19.2427 13.5319 19.2546 13.2523 19.2546 11.0129C19.2528 8.77442 19.2528 8.49025 19.2015 7.613ZM10.9946 15.2186C8.6534 15.2186 6.75681 13.322 6.75681 10.9808C6.75681 8.63967 8.6534 6.74308 10.9946 6.74308C13.3339 6.74308 15.2323 8.63967 15.2323 10.9808C15.2323 13.322 13.3339 15.2186 10.9946 15.2186ZM15.401 7.5745C14.8537 7.5745 14.4128 7.13267 14.4128 6.58633C14.4128 6.04 14.8537 5.59817 15.401 5.59817C15.9464 5.59817 16.3882 6.04 16.3882 6.58633C16.3882 7.13267 15.9464 7.5745 15.401 7.5745Z" fill="#202020"/>
<path d="M10.9944 13.7335C12.5148 13.7335 13.7472 12.5011 13.7472 10.9808C13.7472 9.46048 12.5148 8.22803 10.9944 8.22803C9.47415 8.22803 8.2417 9.46048 8.2417 10.9808C8.2417 12.5011 9.47415 13.7335 10.9944 13.7335Z" fill="#202020"/>
</svg>
