<svg width="73" height="15" viewBox="0 0 73 15" fill="none" xmlns="http://www.w3.org/2000/svg">
<path d="M4.704 5.728H6.608V8.368H4.816V14H1.2V8.368H0V5.728H1.2V5.68C1.2 4.53867 1.54133 3.63733 2.224 2.976C2.90667 2.304 3.86667 1.968 5.104 1.968C5.50933 1.968 5.904 2.00533 6.288 2.08C6.672 2.15467 6.992 2.26133 7.248 2.4L6.384 4.912C6.08533 4.77333 5.81333 4.704 5.568 4.704C5.30133 4.704 5.088 4.78933 4.928 4.96C4.77867 5.12 4.704 5.37067 4.704 5.712V5.728ZM8.896 5.248H12.512V14H8.896V5.248ZM10.704 4.544C10.0533 4.544 9.52533 4.37333 9.12 4.032C8.72533 3.68 8.528 3.23733 8.528 2.704C8.528 2.17067 8.72533 1.73333 9.12 1.392C9.52533 1.04 10.0533 0.863999 10.704 0.863999C11.3653 0.863999 11.8933 1.02933 12.288 1.36C12.6827 1.69067 12.88 2.11733 12.88 2.64C12.88 3.19467 12.6827 3.65333 12.288 4.016C11.8933 4.368 11.3653 4.544 10.704 4.544ZM20.5605 13.696C20.0165 14.0053 19.2752 14.16 18.3365 14.16C17.1098 14.16 16.1658 13.8667 15.5045 13.28C14.8432 12.6827 14.5125 11.792 14.5125 10.608V8.368H13.3125V5.728H14.5125V3.28H18.1285V5.728H19.9205V8.368H18.1285V10.576C18.1285 10.8427 18.1978 11.0507 18.3365 11.2C18.4752 11.3493 18.6565 11.424 18.8805 11.424C19.1898 11.424 19.4618 11.344 19.6965 11.184L20.5605 13.696ZM32.6239 2.8V14H28.8479V9.872H25.3599V14H21.5839V2.8H25.3599V6.768H28.8479V2.8H32.6239ZM40.3153 14.256C39.1099 14.256 38.0273 14.0053 37.0673 13.504C36.1073 13.0027 35.3553 12.3093 34.8113 11.424C34.2673 10.528 33.9953 9.52 33.9953 8.4C33.9953 7.28 34.2673 6.27733 34.8113 5.392C35.3553 4.496 36.1073 3.79733 37.0673 3.296C38.0273 2.79467 39.1099 2.544 40.3153 2.544C41.5206 2.544 42.6033 2.79467 43.5633 3.296C44.5233 3.79733 45.2753 4.496 45.8193 5.392C46.3633 6.27733 46.6353 7.28 46.6353 8.4C46.6353 9.52 46.3633 10.528 45.8193 11.424C45.2753 12.3093 44.5233 13.0027 43.5633 13.504C42.6033 14.0053 41.5206 14.256 40.3153 14.256ZM40.3153 11.2C40.7846 11.2 41.2059 11.088 41.5793 10.864C41.9633 10.6293 42.2673 10.304 42.4913 9.888C42.7153 9.46133 42.8273 8.96533 42.8273 8.4C42.8273 7.83467 42.7153 7.344 42.4913 6.928C42.2673 6.50133 41.9633 6.176 41.5793 5.952C41.2059 5.71733 40.7846 5.6 40.3153 5.6C39.8459 5.6 39.4193 5.71733 39.0353 5.952C38.6619 6.176 38.3633 6.50133 38.1393 6.928C37.9153 7.344 37.8033 7.83467 37.8033 8.4C37.8033 8.96533 37.9153 9.46133 38.1393 9.888C38.3633 10.304 38.6619 10.6293 39.0353 10.864C39.4193 11.088 39.8459 11.2 40.3153 11.2ZM58.0058 14L57.9738 8.896L55.5417 12.992H53.8778L51.4458 9.072V14H48.0058V2.8H51.1098L54.7578 8.768L58.3098 2.8H61.4138L61.4458 14H58.0058ZM72.5834 11.152V14H63.2714V2.8H72.3754V5.648H66.9834V6.96H71.7194V9.68H66.9834V11.152H72.5834Z" fill="#193BE5"/>
</svg>
