<svg width="22" height="22" viewBox="0 0 22 22" fill="none" xmlns="http://www.w3.org/2000/svg">
<path d="M19.7936 6.60292C19.5828 5.81642 18.964 5.19584 18.1784 4.98409C16.7429 4.58992 11 4.5835 11 4.5835C11 4.5835 5.25803 4.57709 3.82161 4.95384C3.05161 5.16375 2.41544 5.79809 2.20278 6.58367C1.82419 8.01917 1.82053 10.9965 1.82053 10.9965C1.82053 10.9965 1.81686 13.9885 2.19269 15.4093C2.40353 16.1949 3.02228 16.8155 3.80878 17.0273C5.25894 17.4214 10.9863 17.4278 10.9863 17.4278C10.9863 17.4278 16.7292 17.4343 18.1647 17.0584C18.9494 16.8476 19.5709 16.2279 19.7844 15.4423C20.1639 14.0078 20.1667 11.0313 20.1667 11.0313C20.1667 11.0313 20.185 8.03842 19.7936 6.60292ZM9.16303 13.7548L9.16761 8.25475L13.9407 11.0093L9.16303 13.7548Z" fill="#202020"/>
</svg>
